<svg width="24" height="25" viewBox="0 0 24 25" fill="none" xmlns="http://www.w3.org/2000/svg">
<path fill-rule="evenodd" clip-rule="evenodd" d="M3.879 6.82041C3 7.69841 3 9.11341 3 11.9414V13.9414C3 16.7694 3 18.1844 3.879 19.0624C4.757 19.9414 6.172 19.9414 9 19.9414H15C17.828 19.9414 19.243 19.9414 20.121 19.0624C21 18.1844 21 16.7694 21 13.9414V11.9414C21 9.11341 21 7.69841 20.121 6.82041C19.243 5.94141 17.828 5.94141 15 5.94141H9C6.172 5.94141 4.757 5.94141 3.879 6.82041ZM6.555 9.10941C6.33434 8.96221 6.06424 8.9087 5.80413 8.96065C5.54402 9.0126 5.3152 9.16575 5.168 9.38641C5.02081 9.60707 4.9673 9.87716 5.01924 10.1373C5.07119 10.3974 5.22434 10.6262 5.445 10.7734L10.891 14.4034C11.2195 14.6223 11.6053 14.739 12 14.739C12.3947 14.739 12.7805 14.6223 13.109 14.4034L18.555 10.7734C18.7757 10.6262 18.9288 10.3974 18.9808 10.1373C19.0327 9.87716 18.9792 9.60707 18.832 9.38641C18.6848 9.16575 18.456 9.0126 18.1959 8.96065C17.9358 8.9087 17.6657 8.96221 17.445 9.10941L12 12.7394L6.555 9.10941Z" fill="url(#paint0_linear_1_475)"/>
<defs>
<linearGradient id="paint0_linear_1_475" x1="3" y1="5.29449" x2="4.21158" y2="20.5596" gradientUnits="userSpaceOnUse">
<stop stop-color="#DAC2FC"/>
<stop offset="1" stop-color="#98C5FC"/>
</linearGradient>
</defs>
</svg>
