<svg width="67" height="67" viewBox="0 0 67 67" fill="none" xmlns="http://www.w3.org/2000/svg">
<circle cx="33.5" cy="33.5" r="33.5" fill="url(#paint0_linear_1_368)"/>
<path d="M45.444 44C48.234 47.976 49.568 50.094 48.774 51.8C48.694 51.9707 48.6007 52.1353 48.494 52.294C47.344 54 44.374 54 38.434 54H27.566C21.626 54 18.658 54 17.508 52.294C17.4031 52.1362 17.3095 51.9711 17.228 51.8C16.434 50.096 17.768 47.976 20.558 44M38 28C38 29.3261 37.4732 30.5979 36.5355 31.5355C35.5979 32.4732 34.3261 33 33 33C31.6739 33 30.4022 32.4732 29.4645 31.5355C28.5268 30.5979 28 29.3261 28 28C28 26.6739 28.5268 25.4021 29.4645 24.4645C30.4022 23.5268 31.6739 23 33 23C34.3261 23 35.5979 23.5268 36.5355 24.4645C37.4732 25.4021 38 26.6739 38 28Z" stroke="#494759" stroke-width="1.5" stroke-linecap="round" stroke-linejoin="round"/>
<path d="M35.514 44.988C34.8385 45.638 33.9375 46.001 33 46.001C32.0626 46.001 31.1616 45.638 30.486 44.988C24.308 39.002 16.03 32.316 20.066 22.608C22.252 17.358 27.492 14 33 14C38.508 14 43.75 17.36 45.934 22.608C49.966 32.302 41.708 39.022 35.514 44.988Z" stroke="#494759" stroke-width="1.5" stroke-linecap="round" stroke-linejoin="round"/>
<defs>
<linearGradient id="paint0_linear_1_368" x1="-1.63338e-06" y1="-3.09597" x2="7.42455" y2="69.6609" gradientUnits="userSpaceOnUse">
<stop stop-color="#DAC2FC"/>
<stop offset="1" stop-color="#98C5FC"/>
</linearGradient>
</defs>
</svg>
