<svg width="48" height="48" viewBox="0 0 48 48" fill="none" xmlns="http://www.w3.org/2000/svg">
<path d="M23.0565 19.5614C23.2235 19.6164 23.3945 19.6569 23.5695 19.6829C23.8475 19.7529 24.129 19.8029 24.414 19.8329C24.5497 20.4859 24.9015 21.0742 25.4126 21.5027C25.9237 21.9313 26.5643 22.1751 27.231 22.1949C27.8977 22.2146 28.5516 22.0092 29.0872 21.6116C29.6228 21.2141 30.0088 20.6477 30.183 20.0039C30.51 18.8249 30.678 17.6069 30.6825 16.3829C31.3989 15.4122 31.9877 14.3535 32.4345 13.2329L32.454 13.1879L32.6145 12.7979L32.82 12.2789C33.0395 11.7103 33.2471 11.1372 33.4425 10.5599L33.483 10.4399L33.498 10.3919C33.6 10.0919 33.702 9.75888 33.798 9.42288C33.855 9.22888 33.9095 9.03288 33.9615 8.83488C34.2081 7.9569 34.3698 7.05727 34.4445 6.14838V6.10338C34.4705 5.35944 34.219 4.6324 33.7389 4.06355C33.2587 3.4947 32.5842 3.12467 31.8465 3.02538C31.263 2.9505 30.6705 3.05239 30.1455 3.31788C29.6845 3.55133 29.2915 3.89992 29.0048 4.32986C28.7181 4.75981 28.5473 5.25653 28.509 5.77188V5.78688C28.3922 6.70412 28.1759 7.60592 27.864 8.47638C27.714 8.92638 27.564 9.35388 27.414 9.73638C27.112 9.58138 26.8 9.45138 26.478 9.34638L26.4495 9.33288C25.0988 8.90346 23.6333 9.02352 22.3706 9.66706C21.1078 10.3106 20.1494 11.4258 19.7031 12.771C19.2568 14.1162 19.3585 15.5831 19.9862 16.8538C20.6139 18.1245 21.717 19.0968 23.0565 19.5599V19.5614ZM28.7355 19.6079C28.6557 19.904 28.4851 20.1677 28.2476 20.3619C28.0101 20.556 27.7178 20.6708 27.4117 20.6902C27.1056 20.7096 26.8011 20.6325 26.5411 20.4698C26.281 20.3072 26.0785 20.0671 25.962 19.7834C26.247 19.7324 26.5265 19.6604 26.8005 19.5674C27.6262 19.275 28.3855 18.8212 29.034 18.2324C28.959 18.6964 28.8595 19.1549 28.7355 19.6079ZM21.0705 13.2179C21.2309 12.7342 21.4851 12.2869 21.8184 11.9014C22.1518 11.516 22.5578 11.2001 23.0133 10.9716C23.4688 10.7432 23.9649 10.6067 24.4731 10.57C24.9814 10.5334 25.4919 10.5972 25.9755 10.7579L26.0205 10.7729C26.3135 10.8669 26.594 10.9889 26.862 11.1389L26.8305 11.2124V11.2304C26.4957 12.0113 26.0401 12.7346 25.4805 13.3739L25.4565 13.3979L25.419 13.4414C25.371 13.4977 25.321 13.5522 25.269 13.6049L25.119 13.5479L25.074 13.5329C24.8353 13.454 24.575 13.4728 24.3502 13.5852C24.1253 13.6976 23.9541 13.8946 23.874 14.1329C23.8286 14.2489 23.8091 14.3735 23.8169 14.4979C23.8246 14.6222 23.8595 14.7434 23.919 14.8529C24.009 15.0449 24.162 15.1994 24.3525 15.2909C24.4025 15.3029 24.4525 15.3169 24.5025 15.3329C24.6385 15.3819 24.778 15.4124 24.921 15.4244C25.1493 15.4379 25.3768 15.3858 25.5765 15.2744C25.6815 15.2204 25.7815 15.1584 25.8765 15.0884C26.1295 14.8904 26.3585 14.6679 26.5635 14.4209L26.5785 14.4059C27.2492 13.6511 27.7946 12.7937 28.194 11.8664C28.2405 11.7599 28.2845 11.6524 28.326 11.5439V11.5214L28.341 11.4854C28.4245 11.2899 28.5055 11.0934 28.584 10.8959L28.635 10.7654L28.686 10.6334C29.322 9.11088 29.766 7.51488 30.0105 5.88288C30.0245 5.70088 30.0695 5.52638 30.1455 5.35938C30.2324 5.17368 30.3565 5.00776 30.51 4.87188C30.8008 4.61339 31.1821 4.4807 31.5705 4.50288C31.893 4.52088 32.2005 4.64688 32.4405 4.86288C32.6083 5.01002 32.7412 5.19275 32.8294 5.39775C32.9176 5.60275 32.959 5.82486 32.9505 6.04788C32.9345 6.28788 32.907 6.53788 32.868 6.79788C32.748 7.53788 32.58 8.26638 32.364 8.98338L32.301 9.19338C32.028 10.087 31.7202 10.9697 31.3785 11.8394L31.329 11.9654C31.2441 12.1807 31.1571 12.3952 31.068 12.6089L31.0455 12.6629L30.9165 12.9749C30.3894 14.1988 29.6738 15.3326 28.7955 16.3349C28.0927 17.2286 27.1349 17.8878 26.049 18.2249C25.5395 18.3625 25.0081 18.3992 24.4845 18.3329C24.2708 18.3061 24.0592 18.264 23.8515 18.2069C23.7424 18.1962 23.6347 18.1735 23.5305 18.1394C23.0457 17.9779 22.5976 17.7224 22.2116 17.3877C21.8256 17.0529 21.5093 16.6453 21.2808 16.1883C21.0524 15.7313 20.9162 15.2337 20.8801 14.724C20.8441 14.2143 20.9087 13.7025 21.0705 13.2179ZM18.09 5.96988C17.933 6.08117 17.7552 6.15985 17.5673 6.20128C17.3793 6.2427 17.185 6.24603 16.9957 6.21107C16.8065 6.17611 16.6262 6.10356 16.4654 5.99772C16.3047 5.89187 16.1668 5.75488 16.0599 5.59484C15.953 5.43479 15.8793 5.25495 15.843 5.06592C15.8068 4.8769 15.8089 4.68253 15.8491 4.49432C15.8893 4.3061 15.9668 4.12785 16.077 3.9701C16.1873 3.81235 16.3281 3.6783 16.491 3.57588C16.8085 3.37631 17.1913 3.30847 17.5581 3.38678C17.9248 3.46509 18.2465 3.68338 18.4548 3.99522C18.6631 4.30707 18.7415 4.68786 18.6734 5.05663C18.6053 5.42539 18.396 5.75304 18.09 5.96988ZM35.952 34.2389C36.1106 34.1263 36.2902 34.0466 36.4801 34.0045C36.67 33.9625 36.8664 33.959 37.0577 33.9942C37.249 34.0294 37.4313 34.1025 37.5939 34.2094C37.7564 34.3163 37.8958 34.4546 38.004 34.6163C38.1121 34.778 38.1867 34.9598 38.2234 35.1508C38.2601 35.3418 38.2581 35.5382 38.2175 35.7285C38.177 35.9187 38.0987 36.0989 37.9873 36.2584C37.8759 36.4178 37.7337 36.5533 37.569 36.6569C37.2483 36.8585 36.8616 36.9272 36.4912 36.8482C36.1207 36.7692 35.7956 36.5489 35.585 36.234C35.3744 35.9191 35.295 35.5345 35.3635 35.1619C35.432 34.7894 35.6432 34.4582 35.952 34.2389ZM37.4505 13.3679C37.912 13.3679 38.3546 13.1846 38.6809 12.8582C39.0072 12.5319 39.1905 12.0894 39.1905 11.6279C39.1905 11.1664 39.0072 10.7238 38.6809 10.3975C38.3546 10.0712 37.912 9.88788 37.4505 9.88788C36.989 9.88788 36.5465 10.0712 36.2201 10.3975C35.8938 10.7238 35.7105 11.1664 35.7105 11.6279C35.7105 12.0894 35.8938 12.5319 36.2201 12.8582C36.5465 13.1846 36.989 13.3679 37.4505 13.3679ZM9.97651 13.0739C9.78666 13.2065 9.57224 13.3 9.34582 13.3487C9.1194 13.3974 8.88553 13.4004 8.65793 13.3576C8.43032 13.3147 8.21357 13.2269 8.02036 13.0991C7.82715 12.9714 7.66139 12.8064 7.53278 12.6138C7.40417 12.4212 7.31531 12.2049 7.2714 11.9774C7.2275 11.75 7.22943 11.5162 7.2771 11.2895C7.32476 11.0629 7.41718 10.848 7.54896 10.6576C7.68074 10.4671 7.84921 10.3049 8.04451 10.1804C8.42841 9.92418 8.89836 9.83098 9.35098 9.92128C9.8036 10.0116 10.2018 10.278 10.458 10.6619C10.7142 11.0458 10.8074 11.5157 10.7171 11.9684C10.6268 12.421 10.3604 12.8192 9.97651 13.0754" fill="url(#paint0_linear_1_354)"/>
<path d="M44.094 22.335C43.9073 22.4216 43.7053 22.4705 43.4996 22.4788C43.2939 22.487 43.0886 22.4544 42.8955 22.383C41.3046 21.7883 39.5883 21.6097 37.9091 21.8641C36.2299 22.1184 34.6434 22.7973 33.3 23.8365C36.7905 23.9265 40.203 24.8775 43.2345 26.61C43.9758 27.0284 44.5216 27.7229 44.7529 28.5421C44.9842 29.3612 44.8822 30.2386 44.4693 30.983C44.0564 31.7273 43.3659 32.2782 42.5484 32.5155C41.731 32.7529 40.8529 32.6574 40.1055 32.25C38.3111 31.2083 36.3153 30.5607 34.2511 30.3505C32.1869 30.1402 30.1016 30.372 28.134 31.0305C28.6365 31.995 29.013 33.021 29.2515 34.083C29.337 34.3995 29.379 34.728 29.3775 35.055C29.4287 35.4695 29.391 35.8902 29.2668 36.2891C29.1427 36.6879 28.9349 37.0557 28.6575 37.368C28.5375 37.488 28.405 37.5925 28.26 37.6815C27.8168 38.1072 27.272 38.4124 26.6775 38.568L7.57051 43.683C6.95446 43.8474 6.30598 43.8466 5.69033 43.6807C5.07468 43.5149 4.51358 43.1898 4.06349 42.7382C3.61339 42.2865 3.29019 41.7243 3.12641 41.1081C2.96263 40.4919 2.96404 39.8435 3.13051 39.228L8.24551 20.118C8.4026 19.5167 8.71266 18.9664 9.14551 18.5205C9.23151 18.3815 9.33151 18.254 9.44551 18.138C9.74823 17.8678 10.1041 17.6639 10.4903 17.5393C10.8765 17.4148 11.2845 17.3725 11.688 17.415C12.0525 17.406 12.417 17.4525 12.768 17.553C13.6998 17.7627 14.6032 18.083 15.459 18.507C15.879 16.077 15.474 13.575 14.3055 11.403C14.0847 10.9912 14.0365 10.5086 14.1716 10.0613C14.3066 9.61407 14.6138 9.23876 15.0255 9.01796C15.4373 8.79717 15.9199 8.74899 16.3671 8.88401C16.8144 9.01904 17.1897 9.32621 17.4105 9.73796C19.1641 13.0063 19.6061 16.8202 18.6465 20.403C19.8111 21.2293 20.9182 22.1339 21.96 23.1105C22.276 22.7901 22.7047 22.6059 23.1546 22.5972C23.6045 22.5884 24.04 22.7558 24.3682 23.0637C24.6964 23.3715 24.8913 23.7955 24.9114 24.245C24.9314 24.6945 24.775 25.1341 24.4755 25.47C24.6895 25.385 24.9065 25.3035 25.1265 25.2255C27.1034 24.515 29.165 24.0672 31.2585 23.8935C31.0741 23.7455 30.9254 23.5579 30.8234 23.3446C30.7214 23.1312 30.6687 22.8977 30.6693 22.6613C30.6699 22.4248 30.7237 22.1916 30.8267 21.9787C30.9298 21.7659 31.0794 21.5791 31.2645 21.432C33.035 20.0317 35.137 19.1124 37.367 18.7628C39.597 18.4133 41.8795 18.6455 43.9935 19.437C44.2832 19.5467 44.5341 19.7396 44.7145 19.9915C44.8949 20.2433 44.9969 20.5429 45.0077 20.8525C45.0184 21.1622 44.9374 21.4681 44.7749 21.7318C44.6123 21.9956 44.3754 22.2054 44.094 22.335ZM17.262 33.3705L16.9905 33.138L17.2395 33.351L17.262 33.3705ZM6.08101 42.2325C6.44101 42.33 6.82201 42.33 7.18351 42.234L8.05051 42.0075C6.82453 41.1184 5.72323 40.0691 4.77601 38.8875L4.57951 39.6225C4.43275 40.1677 4.50846 40.7488 4.79001 41.2383C5.07156 41.7277 5.53591 42.0853 6.08101 42.2325ZM8.47501 38.472C9.54291 39.4561 10.7442 40.2847 12.0435 40.9335L16.2405 39.81C14.6072 38.845 13.0833 37.7059 11.6955 36.4125C9.88067 34.6984 8.29639 32.7556 6.98251 30.633L5.79151 35.0865C6.52138 36.3362 7.42489 37.4761 8.47501 38.472ZM13.7505 34.2195C15.7523 36.0677 18.0489 37.5684 20.5455 38.6595L24.282 37.6575C20.8648 36.3069 17.7866 34.2211 15.2655 31.548C14.3818 30.6708 13.5485 29.7443 12.7695 28.773C12.4245 28.345 12.1025 27.9185 11.8035 27.4935C10.6823 25.9772 9.78699 24.3063 9.14551 22.533L8.09101 26.5245C9.52368 29.3942 11.4379 31.9969 13.7505 34.2195ZM43.0515 28.3545C42.9029 28.1775 42.7216 28.0309 42.5175 27.9225H42.51C39.9679 26.4683 37.1339 25.5985 34.2137 25.3762C31.2935 25.1538 28.3605 25.5845 25.6275 26.637L25.3395 26.742L25.353 26.757C22.5106 27.894 19.9731 29.6795 17.943 31.971C18.3315 32.3115 18.708 32.6235 19.0815 32.9235C19.605 33.3435 20.1315 33.732 20.7315 34.1235C22.3684 32.2396 24.4433 30.787 26.7735 29.8935C29.0456 29.0022 31.489 28.6329 33.9231 28.8128C36.3571 28.9927 38.7196 29.7173 40.836 30.933C41.1851 31.1424 41.5971 31.2216 41.999 31.1565C42.4009 31.0915 42.7668 30.8864 43.032 30.5775C43.2973 30.2686 43.4447 29.8759 43.4483 29.4688C43.4518 29.0617 43.3113 28.6679 43.0515 28.3545Z" fill="url(#paint1_linear_1_354)"/>
<defs>
<linearGradient id="paint0_linear_1_354" x1="7.23985" y1="1.43598" x2="11.2155" y2="38.1786" gradientUnits="userSpaceOnUse">
<stop stop-color="#64B4FF"/>
<stop offset="1" stop-color="#5D8CCA"/>
</linearGradient>
<linearGradient id="paint1_linear_1_354" x1="3.00461" y1="7.19168" x2="6.24601" y2="45.3157" gradientUnits="userSpaceOnUse">
<stop stop-color="#64B4FF"/>
<stop offset="1" stop-color="#5D8CCA"/>
</linearGradient>
</defs>
</svg>
