<svg width="44" height="48" viewBox="0 0 44 48" fill="none" xmlns="http://www.w3.org/2000/svg">
<path d="M21.0825 23.7633L8.11607 37.3482C8.26169 37.8643 8.52335 38.3402 8.88108 38.7396C9.2388 39.139 9.68311 39.4513 10.18 39.6527C10.677 39.854 11.2134 39.9391 11.7482 39.9014C12.2831 39.8637 12.8022 39.7042 13.266 39.4351L27.8557 31.1258L21.0825 23.7633Z" fill="#EA4335"/>
<path d="M34.1939 21.4546L27.8848 17.8408L20.7832 24.0727L27.9137 31.1068L34.1747 27.5318C34.7294 27.2413 35.194 26.8046 35.5181 26.269C35.8423 25.7333 36.0137 25.1192 36.0137 24.4931C36.0137 23.867 35.8423 23.2529 35.5181 22.7172C35.194 22.1816 34.7294 21.7449 34.1747 21.4545L34.1939 21.4546Z" fill="#FBBC04"/>
<path d="M8.11616 11.5699C8.03784 11.8597 7.99882 12.1587 8.00017 12.4588V36.4593C8.00094 36.7594 8.03992 37.0581 8.11616 37.3483L21.5271 24.1113L8.11616 11.5699Z" fill="#4285F4"/>
<path d="M21.1791 24.4593L27.8847 17.8408L13.3143 9.49276C12.7661 9.17172 12.1426 9.0017 11.5074 9.00001C9.93083 8.99694 8.54481 10.0433 8.11607 11.5605L21.1791 24.4593Z" fill="#34A853"/>
</svg>
