<svg width="48" height="48" viewBox="0 0 48 48" fill="none" xmlns="http://www.w3.org/2000/svg">
<path d="M23.996 4C17.98 4 14.08 8.038 9.468 9.51C7.592 10.11 6.654 10.408 6.274 10.83C5.894 11.25 5.784 11.868 5.562 13.1C3.182 26.292 8.382 38.488 20.782 43.236C22.112 43.746 22.778 44 24.002 44C25.226 44 25.894 43.744 27.226 43.234C39.624 38.488 44.818 26.292 42.438 13.1C42.216 11.868 42.104 11.25 41.724 10.828C41.344 10.406 40.408 10.108 38.532 9.51C33.918 8.038 30.012 4 23.996 4Z" stroke="#64B4FF" stroke-width="1.5" stroke-linecap="round" stroke-linejoin="round"/>
<path d="M20.5 19.9179C20.5 19.7979 20.516 19.1059 20.52 18.2379C20.52 17.4419 20.452 16.6779 20.832 15.9779C22.252 13.1499 26.332 13.4379 27.34 16.3179C27.514 16.7919 27.526 17.5419 27.52 18.2379C27.514 19.1239 27.532 19.9179 27.532 19.9179M20.674 20.7599C18.514 20.7599 17.434 22.3199 17.194 23.2799C16.954 24.2399 16.954 27.7199 17.098 29.1599C17.578 30.9599 18.778 31.7039 19.954 31.9439C21.034 32.0399 25.594 32.0039 26.914 32.0039C28.834 32.0399 30.274 31.3199 30.874 29.1599C30.994 28.4399 31.114 24.4799 30.814 23.2799C30.178 21.3599 28.594 20.7599 27.394 20.7599H20.674Z" stroke="#64B4FF" stroke-width="1.5" stroke-linecap="round" stroke-linejoin="round"/>
</svg>
