<svg width="49" height="48" viewBox="0 0 49 48" fill="none" xmlns="http://www.w3.org/2000/svg">
<path d="M34.6 40.56C32.64 42.46 30.5 42.16 28.44 41.26C26.26 40.34 24.26 40.3 21.96 41.26C19.08 42.5 17.56 42.14 15.84 40.56C6.08002 30.5 7.52002 15.18 18.6 14.62C21.3 14.76 23.18 16.1 24.76 16.22C27.12 15.74 29.38 14.36 31.9 14.54C34.92 14.78 37.2 15.98 38.7 18.14C32.46 21.88 33.94 30.1 39.66 32.4C38.52 35.4 37.04 38.38 34.58 40.58L34.6 40.56ZM24.56 14.5C24.26 10.04 27.88 6.36 32.04 6C32.62 11.16 27.36 15 24.56 14.5Z" fill="white"/>
</svg>
